<svg width="64" height="64" viewBox="0 0 64 64" fill="none" xmlns="http://www.w3.org/2000/svg">
<rect width="64" height="64" fill="#0A9518" fill-opacity="0.76"/>
<g clip-path="url(#clip0_2_5)">
<path fill-rule="evenodd" clip-rule="evenodd" d="M17.711 12H38.3933C39.9069 12.0035 41.3574 12.6063 42.4277 13.6766C43.4979 14.7468 44.1008 16.1974 44.1043 17.711V30.4444C44.1008 31.958 43.4979 33.4086 42.4277 34.4788C41.3574 35.5491 39.9069 36.1519 38.3933 36.1554H27.579L18.9096 43.6095C18.77 43.7317 18.5981 43.811 18.4146 43.8378C18.231 43.8646 18.0436 43.8378 17.8749 43.7606C17.7062 43.6835 17.5634 43.5592 17.4636 43.4028C17.3638 43.2464 17.3114 43.0646 17.3125 42.8791C17.3125 42.8558 17.3125 42.8292 17.3125 42.806L17.7741 36.1421H17.711C16.1997 36.1386 14.7511 35.5376 13.6812 34.4702C12.6114 33.4029 12.007 31.9557 12 30.4444V17.711C12.0035 16.1974 12.6063 14.7468 13.6766 13.6766C14.7468 12.6063 16.1974 12.0035 17.711 12V12ZM27.0311 25.4639L23.1198 25.0987L27.1274 17.2328H31.5601L28.2696 22.0706L32.7919 22.5719L24.4911 32.5329L27.0178 25.4606L27.0311 25.4639ZM47.4578 21.2969C48.7341 21.5453 49.8846 22.2289 50.713 23.2311C51.5414 24.2332 51.9963 25.4918 52 26.7921V39.5189C51.9974 41.0019 51.4071 42.4234 50.3584 43.4721C49.3098 44.5207 47.8883 45.111 46.4052 45.1136H46.1994L46.6709 51.9037C46.6725 51.9214 46.6725 51.9392 46.6709 51.9568C46.6709 52.1805 46.582 52.395 46.4239 52.5532C46.2657 52.7113 46.0512 52.8002 45.8275 52.8002C45.6264 52.801 45.4319 52.729 45.2797 52.5977L36.5704 44.8945H25.112L30.7565 39.1503H42.7097C43.9679 39.1468 45.1736 38.6455 46.0632 37.7558C46.9529 36.8661 47.4543 35.6604 47.4578 34.4023V21.2969ZM38.39 13.9258H17.711C16.7079 13.9284 15.7466 14.3281 15.0373 15.0373C14.3281 15.7466 13.9284 16.7079 13.9258 17.711V30.4444C13.9249 31.4501 14.3229 32.4151 15.0325 33.1278C15.742 33.8405 16.7053 34.2427 17.711 34.2462H18.883C19.1265 34.2638 19.3542 34.3729 19.5205 34.5515C19.6868 34.7301 19.7793 34.965 19.7795 35.2091C19.7795 35.229 19.7795 35.2489 19.7795 35.2689L19.401 40.6578L26.553 34.5085C26.7295 34.3325 26.9678 34.2325 27.2171 34.2296H38.39C39.3931 34.227 40.3543 33.8273 41.0636 33.118C41.7729 32.4088 42.1725 31.4475 42.1751 30.4444V17.711C42.1725 16.7079 41.7729 15.7466 41.0636 15.0373C40.3543 14.3281 39.3931 13.9284 38.39 13.9258V13.9258Z" fill="white"/>
</g>
<defs>
<clipPath id="clip0_2_5">
<rect width="40" height="40.8002" fill="white" transform="translate(12 12)"/>
</clipPath>
</defs>
</svg>
