<svg width="64" height="64" viewBox="0 0 64 64" fill="none" xmlns="http://www.w3.org/2000/svg">
<rect width="64" height="64" fill="#0A9518" fill-opacity="0.76"/>
<g clip-path="url(#clip0_2_5)">
<path fill-rule="evenodd" clip-rule="evenodd" d="M23.0939 33.7346C23.1603 33.6668 23.2395 33.613 23.327 33.5762C23.4144 33.5395 23.5083 33.5206 23.6032 33.5206C23.698 33.5206 23.7919 33.5395 23.8794 33.5762C23.9668 33.613 24.0461 33.6668 24.1124 33.7346C24.248 33.8718 24.3241 34.057 24.3241 34.2499C24.3241 34.4429 24.248 34.6281 24.1124 34.7653L22.8902 36.012L24.1124 37.2587C24.1796 37.3259 24.2329 37.4056 24.2692 37.4933C24.3055 37.581 24.3242 37.6751 24.3242 37.77C24.3242 37.865 24.3055 37.959 24.2692 38.0467C24.2329 38.1345 24.1796 38.2142 24.1124 38.2813C24.0453 38.3485 23.9656 38.4017 23.8779 38.4381C23.7901 38.4744 23.6961 38.4931 23.6011 38.4931C23.5062 38.4931 23.4122 38.4744 23.3244 38.4381C23.2367 38.4017 23.157 38.3485 23.0898 38.2813L21.8676 37.0591L20.6453 38.2813C20.579 38.3491 20.4997 38.4029 20.4123 38.4396C20.3248 38.4764 20.2309 38.4953 20.1361 38.4953C20.0412 38.4953 19.9473 38.4764 19.8599 38.4396C19.7724 38.4029 19.6932 38.3491 19.6268 38.2813C19.4922 38.1435 19.4168 37.9586 19.4168 37.7659C19.4168 37.5733 19.4922 37.3883 19.6268 37.2506L20.8491 36.0039L19.6268 34.7572C19.4917 34.6213 19.4159 34.4375 19.4159 34.2459C19.4159 34.0543 19.4917 33.8704 19.6268 33.7346C19.6928 33.6676 19.7714 33.6143 19.8581 33.578C19.9449 33.5417 20.038 33.523 20.132 33.523C20.226 33.523 20.3191 33.5417 20.4059 33.578C20.4926 33.6143 20.5712 33.6676 20.6372 33.7346L21.8594 34.9568L23.0817 33.7346H23.0939ZM22.5317 15.9631C22.1162 15.9547 21.7203 15.7851 21.4276 15.4901C21.1349 15.1951 20.9683 14.7979 20.9631 14.3824V13.8486H14.3263C14.2629 13.8517 14.2029 13.8785 14.1583 13.9238C14.1138 13.9692 14.0879 14.0296 14.086 14.0931V54.7164C14.087 54.7799 14.1127 54.8404 14.1575 54.8852C14.2024 54.9301 14.2629 54.9558 14.3263 54.9568H49.6737C49.7371 54.9558 49.7976 54.9301 49.8425 54.8852C49.8873 54.8404 49.913 54.7799 49.914 54.7164V14.0931C49.9111 14.0303 49.8848 13.9709 49.8403 13.9264C49.7959 13.882 49.7365 13.8557 49.6737 13.8527H43.1795V14.3864C43.1731 14.8033 43.0044 15.2013 42.7092 15.4958C42.414 15.7902 42.0156 15.9579 41.5987 15.9631H22.5317ZM14.3426 57.0631C13.7217 57.0621 13.1264 56.8149 12.6873 56.3758C12.2482 55.9367 12.0011 55.3415 12 54.7205V14.0931C12.0011 13.4721 12.2482 12.8769 12.6873 12.4378C13.1264 11.9987 13.7217 11.7515 14.3426 11.7505H20.9631V11.2534C20.9653 10.833 21.1335 10.4306 21.4311 10.1337C21.7288 9.83683 22.1317 9.66964 22.552 9.66857H25.3714V8.75188C25.3777 8.28992 25.5637 7.84858 25.89 7.52151C26.2163 7.19444 26.6572 7.00737 27.1192 7H36.8971C37.3595 7.00735 37.8008 7.19428 38.1278 7.52124C38.4547 7.84821 38.6417 8.28955 38.649 8.75188V9.67264H41.5783C41.998 9.67478 42.3999 9.84244 42.6966 10.1392C42.9934 10.436 43.161 10.8378 43.1632 11.2575V11.7545H49.6574C50.2783 11.7556 50.8736 12.0028 51.3127 12.4419C51.7518 12.881 51.9989 13.4762 52 14.0972V54.7205C51.9989 55.3415 51.7518 55.9367 51.3127 56.3758C50.8736 56.8149 50.2783 57.0621 49.6574 57.0631H14.3426ZM43.8558 47.3545C44.1367 47.3545 44.4061 47.2428 44.6048 47.0442C44.8035 46.8455 44.9151 46.5761 44.9151 46.2952C44.9151 46.0142 44.8035 45.7448 44.6048 45.5461C44.4061 45.3475 44.1367 45.2359 43.8558 45.2359H29.7511C29.4701 45.2359 29.2007 45.3475 29.002 45.5461C28.8034 45.7448 28.6918 46.0142 28.6918 46.2952C28.6918 46.5761 28.8034 46.8455 29.002 47.0442C29.2007 47.2428 29.4701 47.3545 29.7511 47.3545H43.8558ZM43.8558 26.9837C44.1367 26.9837 44.4061 26.8721 44.6048 26.6734C44.8035 26.4748 44.9151 26.2054 44.9151 25.9244C44.9151 25.6435 44.8035 25.3741 44.6048 25.1754C44.4061 24.9767 44.1367 24.8651 43.8558 24.8651H29.7511C29.4701 24.8651 29.2007 24.9767 29.002 25.1754C28.8034 25.3741 28.6918 25.6435 28.6918 25.9244C28.6918 26.2054 28.8034 26.4748 29.002 26.6734C29.2007 26.8721 29.4701 26.9837 29.7511 26.9837H43.8558ZM43.8558 37.0224C44.1367 37.0224 44.4061 36.9108 44.6048 36.7122C44.8035 36.5135 44.9151 36.2441 44.9151 35.9631C44.9151 35.6822 44.8035 35.4128 44.6048 35.2141C44.4061 35.0155 44.1367 34.9038 43.8558 34.9038H29.7511C29.4701 34.9038 29.2007 35.0155 29.002 35.2141C28.8034 35.4128 28.6918 35.6822 28.6918 35.9631C28.6918 36.2441 28.8034 36.5135 29.002 36.7122C29.2007 36.9108 29.4701 37.0224 29.7511 37.0224H43.8558ZM19.6716 46.2381C19.5328 46.0307 19.482 45.7765 19.5305 45.5317C19.5791 45.2868 19.7229 45.0712 19.9303 44.9324C20.1378 44.7935 20.3919 44.7428 20.6368 44.7913C20.8817 44.8398 21.0972 44.9836 21.2361 45.1911L21.7494 45.9529L23.7865 43.4799C23.8646 43.3847 23.9607 43.3058 24.0693 43.2477C24.178 43.1896 24.297 43.1535 24.4195 43.1414C24.5421 43.1293 24.6659 43.1414 24.7837 43.1771C24.9016 43.2129 25.0113 43.2714 25.1065 43.3496C25.2018 43.4277 25.2807 43.5238 25.3388 43.6324C25.3969 43.741 25.433 43.86 25.4451 43.9826C25.4572 44.1051 25.4451 44.2289 25.4093 44.3468C25.3736 44.4647 25.315 44.5744 25.2369 44.6696L22.4257 48.0919C22.3623 48.1735 22.2867 48.2449 22.2017 48.3037C21.9946 48.4422 21.7411 48.4929 21.4968 48.4448C21.2524 48.3967 21.0371 48.2536 20.8979 48.0471L19.6757 46.2381H19.6716ZM19.9283 25.6352C20.136 25.4965 20.3901 25.4457 20.6351 25.4938C20.8802 25.5419 21.0962 25.685 21.2361 25.8918L21.7494 26.6537L23.7865 24.1807C23.8646 24.0855 23.9607 24.0065 24.0693 23.9484C24.178 23.8904 24.297 23.8542 24.4195 23.8421C24.5421 23.83 24.6659 23.8422 24.7837 23.8779C24.9016 23.9136 25.0113 23.9722 25.1065 24.0503C25.2018 24.1284 25.2807 24.2245 25.3388 24.3331C25.3969 24.4418 25.433 24.5608 25.4451 24.6833C25.4572 24.8059 25.4451 24.9297 25.4093 25.0475C25.3736 25.1654 25.315 25.2751 25.2369 25.3703L22.4257 28.7926C22.357 28.8741 22.2759 28.9442 22.1854 29.0004C21.9783 29.1388 21.7248 29.1896 21.4805 29.1415C21.2361 29.0933 21.0208 28.9503 20.8816 28.7437L19.6594 26.9348C19.521 26.7278 19.4702 26.4743 19.5184 26.2299C19.5665 25.9855 19.7095 25.7702 19.9161 25.6311L19.9283 25.6352Z" fill="white"/>
</g>
<defs>
<clipPath id="clip0_2_5">
<rect width="40" height="50.0631" fill="white" transform="translate(12 7)"/>
</clipPath>
</defs>
</svg>
