<svg width="64" height="64" viewBox="0 0 64 64" fill="none" xmlns="http://www.w3.org/2000/svg">
<rect width="64" height="64" fill="#0A9518" fill-opacity="0.76"/>
<path d="M16.1516 46.5609L16.0095 46.394L15.6331 49.4592C15.6051 49.6961 15.5305 49.9251 15.4134 50.133C15.2963 50.3409 15.1392 50.5235 14.9511 50.6703C14.6676 50.8979 14.3224 51.0351 13.96 51.0641C13.5977 51.0932 13.2349 51.0127 12.9188 50.8333C12.6027 50.6538 12.3478 50.3835 12.187 50.0574C12.0263 49.7314 11.9672 49.3646 12.0174 49.0045L13.0083 41.0663V41.0415C13.0147 40.9924 13.0242 40.9437 13.0367 40.8958C13.0914 40.6647 13.1911 40.4465 13.3302 40.2539C13.4692 40.0613 13.6449 39.898 13.8471 39.7733C14.0493 39.6487 14.2741 39.565 14.5086 39.5273C14.7432 39.4895 14.9828 39.4984 15.214 39.5533C17.8707 40.1523 20.525 40.7621 23.177 41.3824C23.4085 41.4337 23.6274 41.5309 23.8208 41.6681C24.0142 41.8054 24.1781 41.98 24.3029 42.1816C24.5546 42.5888 24.6362 43.0786 24.5302 43.5455C24.4785 43.7763 24.3812 43.9946 24.2439 44.1873C24.1067 44.38 23.9323 44.5434 23.7311 44.6678C23.3261 44.922 22.8369 45.005 22.3708 44.8987C21.1951 44.6323 20.0195 44.3588 18.8474 44.0889C19.1654 44.4609 19.5021 44.8165 19.8561 45.1544C22.4103 47.6504 25.6565 49.3199 29.1724 49.9457C30.8978 50.2505 32.6594 50.2913 34.397 50.0665C36.1165 49.8529 37.7926 49.3749 39.366 48.6493C39.9627 48.3676 40.5345 48.0669 41.0815 47.7472C41.6355 47.4169 42.1719 47.0653 42.6833 46.6817C43.8006 45.8683 44.8207 44.9292 45.7236 43.8829C46.6085 42.8564 47.3702 41.7299 47.9932 40.5265L48.1921 40.1358L51.7439 41.0912L51.4597 41.6808C50.7088 43.2409 49.7662 44.7013 48.6538 46.0281C47.5236 47.3746 46.2344 48.5791 44.8144 49.6154C44.2177 50.0523 43.5855 50.4679 42.9248 50.8585C42.2642 51.2492 41.6 51.5938 40.8861 51.9241C38.9763 52.8218 36.9399 53.4208 34.8481 53.7C32.7472 53.9759 30.6164 53.9292 28.5295 53.5614C24.295 52.8081 20.3861 50.7955 17.313 47.7863C16.8868 47.3743 16.5103 46.9658 16.1623 46.5609H16.1516ZM47.8902 18.3173L48.0323 18.4842L48.3875 15.419C48.4125 15.1789 48.4851 14.9463 48.6011 14.7346C48.7171 14.5229 48.8742 14.3365 49.0632 14.1863C49.2521 14.0361 49.4691 13.9251 49.7015 13.8598C49.9339 13.7945 50.1769 13.7761 50.4165 13.8059C50.656 13.8357 50.8872 13.9129 51.0965 14.0331C51.3058 14.1533 51.489 14.3141 51.6355 14.506C51.7819 14.6979 51.8886 14.917 51.9493 15.1506C52.01 15.3843 52.0235 15.6276 51.9889 15.8665L51.0158 23.8118V23.8367C51.0158 23.8829 51.0158 23.9326 50.9909 23.9823C50.8802 24.4454 50.5914 24.8461 50.1871 25.0974C49.7828 25.3488 49.2956 25.4305 48.8314 25.3249C46.1783 24.7246 43.5038 24.1173 40.8684 23.4957C40.6375 23.444 40.4193 23.3467 40.2265 23.2094C40.0338 23.0722 39.8704 22.8978 39.746 22.6966C39.4917 22.2904 39.4086 21.8 39.5151 21.3327C39.5669 21.1018 39.6642 20.8836 39.8014 20.6909C39.9387 20.4981 40.113 20.3348 40.3143 20.2104C40.7205 19.956 41.2109 19.873 41.6782 19.9795C42.8538 20.2459 44.0259 20.5194 45.2015 20.7893C44.9032 20.4341 44.5729 20.0789 44.1928 19.706C42.9199 18.4628 41.4676 17.4176 39.8845 16.6053C38.3115 15.7904 36.6243 15.2181 34.8801 14.9076C33.1559 14.6027 31.3954 14.562 29.659 14.7868C27.9361 15.0119 26.2586 15.5032 24.6865 16.243C24.0875 16.5224 23.5156 16.8231 22.971 17.1452C22.4134 17.4755 21.8806 17.8271 21.3656 18.2107C20.2487 19.0232 19.2296 19.9624 18.3289 21.0095C17.4416 22.0341 16.6797 23.1609 16.0593 24.3659L15.8568 24.7566L12.2873 23.787L12.5714 23.1974C13.3232 21.6377 14.2657 20.1774 15.3773 18.85C16.5085 17.5044 17.7976 16.3 19.2168 15.2627C19.8182 14.8247 20.4481 14.4103 21.1063 14.0196C21.7492 13.6431 22.4311 13.2844 23.145 12.9541C25.0549 12.0564 27.0913 11.4574 29.1831 11.1782C31.2887 10.9008 33.4244 10.9475 35.5159 11.3167C37.6196 11.6886 39.6552 12.3759 41.5539 13.3554C43.458 14.3353 45.2047 15.5948 46.7359 17.0919C47.1585 17.5039 47.5386 17.9124 47.8867 18.3173H47.8902Z" fill="white"/>
</svg>
