<svg width="64" height="64" viewBox="0 0 64 64" fill="none" xmlns="http://www.w3.org/2000/svg">
<rect width="64" height="64" fill="#0A9518" fill-opacity="0.76"/>
<g clip-path="url(#clip0_2_5)">
<path d="M28.4739 10.2747C28.6676 10.0987 28.9195 10.0004 29.1813 9.99886C29.2372 9.99617 29.2933 10.0021 29.3475 10.0165H45.687C46.3013 10.0221 46.8885 10.27 47.321 10.7062C47.537 10.9213 47.7082 11.177 47.8248 11.4587C47.9414 11.7404 48.0009 12.0424 48 12.3472V51.1447C47.9991 51.7598 47.7543 52.3494 47.3194 52.7843C46.8845 53.2191 46.295 53.4639 45.6799 53.4648H18.359C17.7439 53.4639 17.1544 53.2191 16.7195 52.7843C16.2846 52.3494 16.0398 51.7598 16.0389 51.1447V23.5585C16.0141 23.4686 16.0011 23.3759 16 23.2827C16.0038 23.1338 16.0369 22.9872 16.0976 22.8512C16.1583 22.7152 16.2454 22.5926 16.3537 22.4905L28.3431 10.3525C28.3708 10.3244 28.4017 10.2995 28.435 10.2783L28.4739 10.2747ZM45.9381 12.3402C45.942 12.3083 45.9371 12.276 45.924 12.2467C45.9109 12.2175 45.8901 12.1923 45.8638 12.1739C45.8231 12.1305 45.7676 12.104 45.7082 12.0997H30.2246V21.1819C30.2255 21.596 30.1446 22.0062 29.9866 22.3889C29.8286 22.7716 29.5965 23.1194 29.3037 23.4122C29.0109 23.705 28.6631 23.9371 28.2804 24.0951C27.8977 24.2531 27.4875 24.334 27.0734 24.3331H18.1574V51.1377C18.1557 51.1689 18.1612 51.2002 18.1735 51.229C18.1857 51.2578 18.2044 51.2834 18.2281 51.3039C18.2719 51.3492 18.3314 51.3758 18.3943 51.3782H45.7082C45.7398 51.3794 45.7712 51.3734 45.8 51.3605C45.8289 51.3476 45.8543 51.3282 45.8744 51.3039C45.9186 51.2593 45.945 51.2003 45.9487 51.1377V12.3402H45.9381ZM24.0106 45.8432C23.763 45.8432 23.5255 45.7449 23.3504 45.5698C23.1753 45.3947 23.0769 45.1572 23.0769 44.9096C23.0769 44.6619 23.1753 44.4244 23.3504 44.2493C23.5255 44.0742 23.763 43.9759 24.0106 43.9759H33.9134C34.161 43.9759 34.3985 44.0742 34.5736 44.2493C34.7487 44.4244 34.847 44.6619 34.847 44.9096C34.847 45.1572 34.7487 45.3947 34.5736 45.5698C34.3985 45.7449 34.161 45.8432 33.9134 45.8432H24.0106ZM24.0106 39.5656C23.763 39.5656 23.5255 39.4672 23.3504 39.2921C23.1753 39.117 23.0769 38.8796 23.0769 38.6319C23.0769 38.3843 23.1753 38.1468 23.3504 37.9717C23.5255 37.7966 23.763 37.6982 24.0106 37.6982H39.1512C39.3988 37.6982 39.6363 37.7966 39.8114 37.9717C39.9865 38.1468 40.0849 38.3843 40.0849 38.6319C40.0849 38.8796 39.9865 39.117 39.8114 39.2921C39.6363 39.4672 39.3988 39.5656 39.1512 39.5656H24.0106ZM24.0106 33.2844C23.763 33.2844 23.5255 33.1861 23.3504 33.011C23.1753 32.8359 23.0769 32.5984 23.0769 32.3508C23.0769 32.1031 23.1753 31.8656 23.3504 31.6905C23.5255 31.5154 23.763 31.4171 24.0106 31.4171H41.4642C41.7118 31.4171 41.9493 31.5154 42.1244 31.6905C42.2995 31.8656 42.3979 32.1031 42.3979 32.3508C42.3979 32.5984 42.2995 32.8359 42.1244 33.011C41.9493 33.1861 41.7118 33.2844 41.4642 33.2844H24.0106ZM28.1485 21.1819V13.5745L19.5756 22.25H27.0734C27.3547 22.2448 27.6237 22.1336 27.8267 21.9387C28.0268 21.7375 28.1398 21.4657 28.1415 21.1819H28.1485Z" fill="white"/>
</g>
<defs>
<clipPath id="clip0_2_5">
<rect width="32" height="43.4589" fill="white" transform="translate(16 10)"/>
</clipPath>
</defs>
</svg>
