<svg width="64" height="64" viewBox="0 0 64 64" fill="none" xmlns="http://www.w3.org/2000/svg">
<rect width="64" height="64" fill="#0A9518" fill-opacity="0.76"/>
<path d="M29.5086 52.6423C30.16 52.6423 30.6878 53.1702 30.6878 53.8216C30.6878 54.4729 30.16 55.0008 29.5086 55.0008H14.744C13.9878 55.0008 13.3028 54.6938 12.8049 54.1959C12.307 53.698 12 53.013 12 52.2568V11.744C12 10.9878 12.307 10.3028 12.8049 9.80486C13.3028 9.30697 13.9878 9 14.744 9H48.4435C49.1997 9 49.8848 9.31071 50.3827 9.80486C50.8805 10.3028 51.1875 10.9878 51.1875 11.744V30.5142C51.1875 31.1656 50.6597 31.6934 50.0083 31.6934C49.3569 31.6934 48.8291 31.1656 48.8291 30.5142V11.744C48.8291 11.6392 48.7842 11.5419 48.713 11.4745C48.6419 11.4034 48.5446 11.3584 48.4435 11.3584H14.744C14.6392 11.3584 14.5419 11.4034 14.4707 11.4707C14.4034 11.5456 14.3584 11.6392 14.3584 11.744V52.253C14.3584 52.3578 14.4034 52.4552 14.4745 52.5225C14.5456 52.5937 14.6429 52.6386 14.7478 52.6386H29.5086V52.6423ZM48.9489 36.8296C48.7579 36.6461 48.5371 36.56 48.2825 36.5638C48.028 36.5675 47.8108 36.6686 47.6311 36.8558L46.1674 38.3794L50.2741 42.3438L51.7528 40.8052C51.9287 40.6255 52.0036 40.3934 51.9999 40.1389C51.9961 39.8881 51.9063 39.6597 51.7266 39.4875L48.9489 36.8296ZM41.2783 51.6803C40.7355 51.8525 40.1964 52.0321 39.6574 52.2081C39.1146 52.3878 38.5755 52.5712 38.0364 52.7509C36.7599 53.1702 36.0448 53.4023 35.8951 53.4435C35.7491 53.4884 35.8352 52.8894 36.1571 51.6428L37.1717 47.7308L44.8647 39.7271L48.9676 43.6765L41.2783 51.6803ZM23.8221 24.3785C23.1708 24.3785 22.6429 23.8507 22.6429 23.1993C22.6429 22.5479 23.1708 22.0201 23.8221 22.0201H39.3729C40.0242 22.0201 40.5521 22.5479 40.5521 23.1993C40.5521 23.8507 40.0242 24.3785 39.3729 24.3785H23.8221ZM23.8221 41.1085C23.1708 41.1085 22.6392 40.5731 22.6392 39.9143C22.6392 39.2554 23.167 38.7201 23.8221 38.7201H31.4852C32.1366 38.7201 32.6682 39.2554 32.6682 39.9143C32.6682 40.5731 32.1403 41.1085 31.4852 41.1085H23.8221ZM23.8221 32.7379C23.1708 32.7379 22.6429 32.21 22.6429 31.5587C22.6429 30.9073 23.1708 30.3794 23.8221 30.3794H39.3729C40.0242 30.3794 40.5521 30.9073 40.5521 31.5587C40.5521 32.21 40.0242 32.7379 39.3729 32.7379H23.8221Z" fill="white"/>
</svg>
