<svg width="64" height="64" viewBox="0 0 64 64" fill="none" xmlns="http://www.w3.org/2000/svg">
<rect width="64" height="64" fill="#0A9518"/>
<g clip-path="url(#clip0_2_5)">
<path d="M16.9902 12H40.5937C41.9164 12.0027 43.1842 12.5446 44.1195 13.5073C45.0548 14.4699 45.5814 15.7747 45.584 17.1361V31.8945C45.5814 33.2558 45.0548 34.5607 44.1195 35.5233C43.1842 36.4859 41.9164 37.0279 40.5937 37.0306H25.6198L18.0417 43.7313C17.9577 43.8051 17.8604 43.8611 17.7554 43.8962C17.6504 43.9312 17.5397 43.9446 17.4296 43.9356C17.3196 43.9266 17.2124 43.8953 17.1141 43.8436C17.0158 43.7918 16.9283 43.7207 16.8568 43.6341C16.714 43.4638 16.6426 43.2421 16.6582 43.0177L17.0553 37.0272H16.9902C15.6681 37.0246 14.4008 36.4831 13.4656 35.5211C12.5304 34.5592 12.0034 33.2552 12 31.8945V17.1361C12.0026 15.7747 12.5292 14.4699 13.4645 13.5073C14.3997 12.5446 15.6675 12.0027 16.9902 12V12ZM48.0319 22.8317C49.1464 23.0564 50.1508 23.6715 50.8743 24.5725C51.5978 25.4735 51.9956 26.6047 52 27.7735V40.056C51.994 41.3869 51.4776 42.6616 50.5632 43.6027C49.6488 44.5439 48.4103 45.0753 47.1172 45.0815H46.9414L47.3483 51.1993C47.3569 51.3478 47.323 51.4957 47.2508 51.6246C47.1785 51.7535 47.0711 51.8577 46.9419 51.9244C46.8126 51.9911 46.6672 52.0173 46.5236 51.9998C46.38 51.9823 46.2446 51.9218 46.1341 51.8258L38.5267 44.8905H22.1563L27.0911 39.7243H43.901C44.9999 39.7198 46.0524 39.2682 46.8288 38.4678C47.6051 37.6675 48.0424 36.5835 48.0449 35.4526V23.1701C48.0449 23.0562 48.0449 22.9423 48.0449 22.8351L48.0319 22.8317ZM21.9023 27.941C21.7874 27.9484 21.6723 27.9315 21.564 27.8913C21.4557 27.8511 21.3565 27.7885 21.2726 27.7073C21.1887 27.6262 21.1219 27.5282 21.0762 27.4195C21.0305 27.3107 21.0069 27.1935 21.0069 27.075C21.0069 26.9565 21.0305 26.8392 21.0762 26.7305C21.1219 26.6217 21.1887 26.5238 21.2726 26.4426C21.3565 26.3615 21.4557 26.2989 21.564 26.2587C21.6723 26.2185 21.7874 26.2015 21.9023 26.2089H32.9701C33.085 26.2015 33.2001 26.2185 33.3084 26.2587C33.4167 26.2989 33.5159 26.3615 33.5998 26.4426C33.6837 26.5238 33.7505 26.6217 33.7962 26.7305C33.8419 26.8392 33.8655 26.9565 33.8655 27.075C33.8655 27.1935 33.8419 27.3107 33.7962 27.4195C33.7505 27.5282 33.6837 27.6262 33.5998 27.7073C33.5159 27.7885 33.4167 27.8511 33.3084 27.8913C33.2001 27.9315 33.085 27.9484 32.9701 27.941H21.9023ZM21.9023 22.0008C21.7874 22.0082 21.6723 21.9913 21.564 21.9511C21.4557 21.9109 21.3565 21.8483 21.2726 21.7671C21.1887 21.686 21.1219 21.588 21.0762 21.4793C21.0305 21.3705 21.0069 21.2533 21.0069 21.1348C21.0069 21.0163 21.0305 20.899 21.0762 20.7903C21.1219 20.6815 21.1887 20.5836 21.2726 20.5024C21.3565 20.4213 21.4557 20.3587 21.564 20.3185C21.6723 20.2783 21.7874 20.2613 21.9023 20.2687H36.6452C36.7601 20.2613 36.8752 20.2783 36.9835 20.3185C37.0918 20.3587 37.191 20.4213 37.2749 20.5024C37.3588 20.5836 37.4257 20.6815 37.4714 20.7903C37.5171 20.899 37.5406 21.0163 37.5406 21.1348C37.5406 21.2533 37.5171 21.3705 37.4714 21.4793C37.4257 21.588 37.3588 21.686 37.2749 21.7671C37.191 21.8483 37.0918 21.9109 36.9835 21.9511C36.8752 21.9913 36.7601 22.0082 36.6452 22.0008H21.9023ZM40.5905 13.7321H16.9902C16.1134 13.733 15.2726 14.0919 14.6526 14.7301C14.0325 15.3683 13.6838 16.2336 13.6829 17.1361V31.8945C13.6855 32.7964 14.0348 33.6607 14.6545 34.2985C15.2742 34.9363 16.1139 35.2958 16.9902 35.2984H18.0156C18.2368 35.3148 18.4427 35.4204 18.5884 35.5924C18.7342 35.7644 18.8079 35.9887 18.7936 36.2164L18.4681 41.0711L24.7148 35.543C24.8727 35.3826 25.0854 35.2923 25.3073 35.2917H40.5905C41.4658 35.2882 42.3044 34.9295 42.9242 34.2934C43.544 33.6574 43.895 32.7953 43.901 31.8945V17.1361C43.8985 16.2336 43.5487 15.3688 42.9284 14.7309C42.308 14.093 41.4674 13.7339 40.5905 13.7321V13.7321Z" fill="white"/>
</g>
<defs>
<clipPath id="clip0_2_5">
<rect width="40" height="40" fill="white" transform="translate(12 12)"/>
</clipPath>
</defs>
</svg>
